# xmcd
# 
# Track frame offsets:
#     150
#     17362
#     35803
#     55484
#     72687
#     91141
#     110984
# 
# Disc length: 1605
# 
# Revision: 3
# Processed by: cddbd v1.5.2PL0 Copyright (c) Steve Scherf et al.
# Submitted via: fre:ac v1.0.31
# 
DISCID=63064307
DTITLE=Various Artist - THE IDOLM@STER CINDERELLA GIRLS STARLIGHT MASTER 03 ハイファイ☆デイズ
DYEAR=2016
DGENRE=Game
TTITLE0=佐々木千枝、櫻井桃華、市原仁奈、龍崎薫、赤城みりあ - ハイファイ☆デイズ（M@STER VERSION）
TTITLE1=城ヶ崎莉嘉 - SUPERLOVE☆
TTITLE2=城ヶ崎美嘉 - NUDIE★
TTITLE3=佐々木千枝、櫻井桃華、市原仁奈、龍崎薫、赤城みりあ - ハイファイ☆デイズ（M@STER VERSION） オリジナル・カラオケ
TTITLE4=佐々木千枝、櫻井桃華、市原仁奈、龍崎薫、赤城みりあ - SUPERLOVE☆ オリジナル・カラオケ
TTITLE5=城ヶ崎莉嘉 - NUDIE★ オリジナル・カラオケ
TTITLE6=城ヶ崎美嘉 - ハイファイ☆デイズ（Game Version）
EXTD=
EXTT0=
EXTT1=
EXTT2=
EXTT3=
EXTT4=
EXTT5=
EXTT6=
PLAYORDER=
